<?xml version="1.0" encoding="utf-8"?>
<!-- Generator: Adobe Illustrator 17.0.0, SVG Export Plug-In . SVG Version: 6.00 Build 0)  -->
<!DOCTYPE svg PUBLIC "-//W3C//DTD SVG 1.1//EN" "http://www.w3.org/Graphics/SVG/1.1/DTD/svg11.dtd">
<svg version="1.1" id="Ebene_1" focusable="false" xmlns="http://www.w3.org/2000/svg" xmlns:xlink="http://www.w3.org/1999/xlink"
	 x="0px" y="0px" width="595.28px" height="841.89px" viewBox="0 0 595.28 841.89" enable-background="new 0 0 595.28 841.89"
	 xml:space="preserve">
<path fill="#C92027" d="M555.994,511.74l-165.341-90.795l165.341-90.795c13.714-7.531,18.557-24.862,10.734-38.411l-22.649-39.229
	c-7.822-13.548-25.253-18.02-38.632-9.909l-161.301,97.793l4.04-188.588c0.335-15.641-12.252-28.501-27.898-28.501h-45.297
	c-15.645,0-28.233,12.86-27.897,28.501l4.039,188.588L89.833,242.602c-13.378-8.111-30.809-3.639-38.632,9.909L28.553,291.74
	c-7.822,13.548-2.979,30.88,10.735,38.411l165.34,90.794L39.286,511.74c-13.714,7.53-18.557,24.862-10.734,38.411l22.649,39.229
	c7.822,13.548,25.254,18.02,38.632,9.909l161.301-97.793l-4.04,188.587c-0.335,15.641,12.253,28.501,27.898,28.501h45.298
	c15.645,0,28.233-12.86,27.898-28.501l-4.041-188.587l161.301,97.792c13.378,8.111,30.809,3.639,38.632-9.909l22.649-39.229
	C574.55,536.601,569.707,519.271,555.994,511.74z"/>
</svg>
