<?xml version="1.0" encoding="utf-8"?>
<!-- Generator: Adobe Illustrator 17.0.0, SVG Export Plug-In . SVG Version: 6.00 Build 0)  -->
<!DOCTYPE svg PUBLIC "-//W3C//DTD SVG 1.1//EN" "http://www.w3.org/Graphics/SVG/1.1/DTD/svg11.dtd">
<svg version="1.1" id="Ebene_1" focusable="false" xmlns="http://www.w3.org/2000/svg" xmlns:xlink="http://www.w3.org/1999/xlink"
	 x="0px" y="0px" width="595.28px" height="841.89px" viewBox="0 0 595.28 841.89" enable-background="new 0 0 595.28 841.89"
	 xml:space="preserve">
<path fill="#C92027" d="M542.777,333.617l-150.99-22.013l-67.486-136.832c-12.092-24.39-47.126-24.7-59.321,0l-67.486,136.832
	l-150.99,22.013c-27.077,3.927-37.928,37.308-18.292,56.428l109.238,106.448l-25.837,150.37
	c-4.651,27.18,23.977,47.54,47.953,34.828l135.075-71l135.075,71c23.977,12.608,52.604-7.648,47.953-34.828l-25.837-150.37
	l109.238-106.448C580.705,370.925,569.854,337.544,542.777,333.617L542.777,333.617z M398.607,479.129l24.493,143.033
	L294.64,554.676l-128.461,67.486l24.493-143.033L86.705,377.849l143.653-20.876l64.282-130.217l64.282,130.217l143.653,20.876
	L398.607,479.129L398.607,479.129z"/>
</svg>
