<?xml version="1.0" encoding="utf-8"?>
<!-- Generator: Adobe Illustrator 17.0.0, SVG Export Plug-In . SVG Version: 6.00 Build 0)  -->
<!DOCTYPE svg PUBLIC "-//W3C//DTD SVG 1.1//EN" "http://www.w3.org/Graphics/SVG/1.1/DTD/svg11.dtd">
<svg version="1.1" id="Ebene_1" focusable="false" xmlns="http://www.w3.org/2000/svg" xmlns:xlink="http://www.w3.org/1999/xlink"
	 x="0px" y="0px" width="595.28px" height="841.89px" viewBox="0 0 595.28 841.89" enable-background="new 0 0 595.28 841.89"
	 xml:space="preserve">
<path fill="#C92027" d="M407.349,420.945l164.547-164.547c20.192-20.192,20.192-52.931,0-73.139l-36.57-36.57
	c-20.192-20.192-52.931-20.192-73.139,0L297.64,311.236L133.093,146.689c-20.192-20.192-52.931-20.192-73.139,0l-36.57,36.57
	c-20.192,20.192-20.192,52.931,0,73.139l164.547,164.547L23.384,585.492c-20.192,20.192-20.192,52.931,0,73.139l36.57,36.57
	c20.192,20.192,52.947,20.192,73.139,0L297.64,530.654l164.547,164.547c20.192,20.192,52.947,20.192,73.139,0l36.57-36.57
	c20.192-20.192,20.192-52.931,0-73.139L407.349,420.945z"/>
</svg>
