<?xml version="1.0" encoding="utf-8"?>
<!-- Generator: Adobe Illustrator 17.0.0, SVG Export Plug-In . SVG Version: 6.00 Build 0)  -->
<!DOCTYPE svg PUBLIC "-//W3C//DTD SVG 1.1//EN" "http://www.w3.org/Graphics/SVG/1.1/DTD/svg11.dtd">
<svg version="1.1" id="Ebene_1" focusable="false" xmlns="http://www.w3.org/2000/svg" xmlns:xlink="http://www.w3.org/1999/xlink"
	 x="0px" y="0px" width="595.28px" height="841.89px" viewBox="0 0 595.28 841.89" enable-background="new 0 0 595.28 841.89"
	 xml:space="preserve">
<path fill="#C92027" d="M205.862,468.886c43.646-14.41,61.792-31.153,81.012-48.909c20.686-19.094,42.083-38.831,91.855-55.278
	s78.714-13.308,106.699-10.276c23.634,2.519,46.202,4.835,82.887-5.571l-15.65-46.899c-4.555-13.461-18.225-21.602-32.229-19.194
	c-15.579,2.688-26.95,1.434-42.61-0.291c-140.9-15.557-219.154,61.631-235.879,77.003c-57.796,53.127-114.175,41.254-123.231,40.249
	c-24.558-2.713-54.062-5.978-96.855,3.738c-16.328,3.719-25.657,20.929-20.383,36.744l14.85,44.535
	c42.919-12.387,69.722-9.701,95.437-6.926C137.737,480.633,162.245,483.301,205.862,468.886z M592.557,421.681l-14.841-44.53
	c-42.948,12.404-69.742,9.722-95.529,6.942c-25.969-2.809-50.498-5.456-94.123,8.913s-61.78,31.149-80.97,48.93
	c-20.728,19.114-42.12,38.823-91.892,55.248s-78.656,13.296-106.632,10.247c-23.617-2.51-46.168-4.839-82.812,5.567l15.641,46.937
	c4.558,13.46,18.23,21.597,32.233,19.185c15.529-2.671,26.879-1.417,42.535,0.316C256.651,594.929,334.673,518.324,352,502.441
	c57.763-53.102,114.154-41.254,123.248-40.261c24.57,2.709,54.078,5.966,96.909-3.763c16.332-3.665,25.682-20.917,20.404-36.724
	L592.557,421.681z"/>
</svg>
