<?xml version="1.0" encoding="utf-8"?>
<!-- Generator: Adobe Illustrator 17.0.0, SVG Export Plug-In . SVG Version: 6.00 Build 0)  -->
<!DOCTYPE svg PUBLIC "-//W3C//DTD SVG 1.1//EN" "http://www.w3.org/Graphics/SVG/1.1/DTD/svg11.dtd">
<svg version="1.1" id="Ebene_1" focusable="false" xmlns="http://www.w3.org/2000/svg" xmlns:xlink="http://www.w3.org/1999/xlink"
	 x="0px" y="0px" width="595.28px" height="841.89px" viewBox="0 0 595.28 841.89" enable-background="new 0 0 595.28 841.89"
	 xml:space="preserve">
<path fill="#1D67B2" d="M127.56,463.465H42.52c-23.479,0-42.52,19.041-42.52,42.52v85.04c0,23.479,19.041,42.52,42.52,42.52h85.04
	c23.479,0,42.52-19.041,42.52-42.52v-85.04C170.08,482.506,151.039,463.465,127.56,463.465z M340.16,463.465h-85.04
	c-23.479,0-42.52,19.041-42.52,42.52v85.04c0,23.479,19.041,42.52,42.52,42.52h85.04c23.479,0,42.52-19.041,42.52-42.52v-85.04
	C382.68,482.506,363.639,463.465,340.16,463.465z M552.76,463.465h-85.04c-23.479,0-42.52,19.041-42.52,42.52v85.04
	c0,23.479,19.041,42.52,42.52,42.52h85.04c23.479,0,42.52-19.041,42.52-42.52v-85.04C595.28,482.506,576.239,463.465,552.76,463.465
	z M127.56,208.345H42.52c-23.479,0-42.52,19.041-42.52,42.52v85.04c0,23.479,19.041,42.52,42.52,42.52h85.04
	c23.479,0,42.52-19.041,42.52-42.52v-85.04C170.08,227.386,151.039,208.345,127.56,208.345z M340.16,208.345h-85.04
	c-23.479,0-42.52,19.041-42.52,42.52v85.04c0,23.479,19.041,42.52,42.52,42.52h85.04c23.479,0,42.52-19.041,42.52-42.52v-85.04
	C382.68,227.386,363.639,208.345,340.16,208.345z M552.76,208.345h-85.04c-23.479,0-42.52,19.041-42.52,42.52v85.04
	c0,23.479,19.041,42.52,42.52,42.52h85.04c23.479,0,42.52-19.041,42.52-42.52v-85.04C595.28,227.386,576.239,208.345,552.76,208.345
	z"/>
</svg>
