<?xml version="1.0" encoding="utf-8"?>
<!-- Generator: Adobe Illustrator 17.0.0, SVG Export Plug-In . SVG Version: 6.00 Build 0)  -->
<!DOCTYPE svg PUBLIC "-//W3C//DTD SVG 1.1//EN" "http://www.w3.org/Graphics/SVG/1.1/DTD/svg11.dtd">
<svg version="1.1" id="Ebene_1" focusable="false" xmlns="http://www.w3.org/2000/svg" xmlns:xlink="http://www.w3.org/1999/xlink"
	 x="0px" y="0px" width="595.28px" height="841.89px" viewBox="0 0 595.28 841.89" enable-background="new 0 0 595.28 841.89"
	 xml:space="preserve">
<path fill="#1D67B2" d="M245.022,656.39v-495c0-9.075-11.839-16.5-26.309-16.5h-52.618c-14.47,0-26.309,7.425-26.309,16.5v495
	c0,9.075,11.839,16.5,26.309,16.5h52.618C233.183,672.89,245.022,665.465,245.022,656.39z M455.494,656.39v-495
	c0-9.075-11.839-16.5-26.309-16.5h-52.618c-14.47,0-26.309,7.425-26.309,16.5v495c0,9.075,11.839,16.5,26.309,16.5h52.618
	C443.655,672.89,455.494,665.465,455.494,656.39z"/>
</svg>
