<?xml version="1.0" encoding="utf-8"?>
<!-- Generator: Adobe Illustrator 17.0.0, SVG Export Plug-In . SVG Version: 6.00 Build 0)  -->
<!DOCTYPE svg PUBLIC "-//W3C//DTD SVG 1.1//EN" "http://www.w3.org/Graphics/SVG/1.1/DTD/svg11.dtd">
<svg version="1.1" id="Ebene_1" focusable="false" xmlns="http://www.w3.org/2000/svg" xmlns:xlink="http://www.w3.org/1999/xlink"
	 x="0px" y="0px" width="595.28px" height="841.89px" viewBox="0 0 595.28 841.89" enable-background="new 0 0 595.28 841.89"
	 xml:space="preserve">
<path fill="#C92027" d="M552.76,357.165H361.42v-191.34c0-23.479-19.041-42.52-42.52-42.52h-42.52
	c-23.479,0-42.52,19.041-42.52,42.52v191.34H42.52c-23.479,0-42.52,19.041-42.52,42.52v42.52c0,23.479,19.041,42.52,42.52,42.52
	h191.34v191.34c0,23.479,19.041,42.52,42.52,42.52h42.52c23.479,0,42.52-19.041,42.52-42.52v-191.34h191.34
	c23.479,0,42.52-19.041,42.52-42.52v-42.52C595.28,376.206,576.239,357.165,552.76,357.165z"/>
</svg>
